<?xml version="1.0" standalone="no"?>
<!DOCTYPE svg PUBLIC "-//W3C//DTD SVG 20010904//EN"
 "http://www.w3.org/TR/2001/REC-SVG-20010904/DTD/svg10.dtd">
<svg version="1.0" xmlns="http://www.w3.org/2000/svg"
 width="160.000000pt" height="160.000000pt" viewBox="0 0 160.000000 160.000000"
 preserveAspectRatio="xMidYMid meet">
<metadata>
Created by potrace 1.14, written by Peter Selinger 2001-2017
</metadata>
<g transform="translate(0.000000,160.000000) scale(0.100000,-0.100000)"
fill="#000000" stroke="none">
<path d="M437 1503 c-9 -2 -24 -18 -32 -34 -9 -16 -21 -29 -28 -30 -6 0 -67
-1 -134 -2 -166 -3 -158 9 -142 -217 0 -8 -6 -40 -15 -70 -29 -103 -37 -172
-41 -330 -3 -119 -11 -171 -27 -181 -14 -9 -13 -116 0 -132 15 -18 24 -85 12
-92 -6 -4 -10 -39 -10 -80 0 -66 3 -77 25 -100 14 -14 36 -25 49 -25 16 0 27
-10 40 -39 45 -102 169 -148 273 -101 54 24 76 45 103 98 l22 42 248 0 248 0
11 -27 c31 -74 118 -132 198 -133 82 0 170 59 195 132 9 25 14 28 58 28 48 0
69 11 89 49 14 25 8 154 -7 159 -16 5 -15 57 1 70 8 7 14 39 14 92 1 44 5 84
8 89 3 6 -3 16 -14 23 -16 12 -19 26 -18 113 1 171 -16 476 -29 520 -9 29 -52
83 -77 96 -12 7 -71 13 -131 15 -90 3 -111 6 -119 20 -5 9 -18 25 -28 35 -18
18 -38 19 -371 18 -194 -1 -361 -3 -371 -6z"/>
</g>
</svg>
